<?xml version="1.0" standalone="no"?><!-- Generator: Gravit.io --><svg xmlns="http://www.w3.org/2000/svg" xmlns:xlink="http://www.w3.org/1999/xlink" style="isolation:isolate" viewBox="371.5 366.5 997.25 839" width="997.25" height="839"><defs><clipPath id="_clipPath_4mvmMj10hYimCrK1PPQW824gkXsnfArG"><rect x="371.5" y="366.5" width="997.25" height="839"/></clipPath></defs><g clip-path="url(#_clipPath_4mvmMj10hYimCrK1PPQW824gkXsnfArG)"><rect x="373" y="368" width="993.25" height="48" transform="matrix(1,0,0,1,0,0)" fill="rgb(209,209,209)" vector-effect="non-scaling-stroke" stroke-width="3" stroke="rgb(209,209,209)" stroke-linejoin="miter" stroke-linecap="square" stroke-miterlimit="2"/><rect x="612" y="1064" width="396.566" height="73" transform="matrix(1,0,0,1,0,0)" fill="rgb(209,209,209)"/><rect x="986.125" y="408" width="382.625" height="8" transform="matrix(1,0,0,1,0,0)" fill="rgb(116,116,116)"/><path d=" M 1004.125 379.375 L 988.125 379.375 C 987.023 379.375 986.125 380.273 986.125 381.375 L 986.125 397.375 C 986.125 398.477 987.023 399.375 988.125 399.375 L 1004.125 399.375 C 1005.227 399.375 1006.125 398.477 1006.125 397.375 L 1006.125 381.375 C 1006.125 380.273 1005.227 379.375 1004.125 379.375 Z  M 1002.523 384.773 L 1001.125 384.773 C 1000.227 384.773 1000.125 385.074 1000.125 385.773 L 1000.125 387.075 L 1002.227 387.075 L 1002.125 389.375 L 1000.227 389.375 L 1000.227 396.375 L 997.023 396.375 L 997.023 389.375 L 995.825 389.375 L 995.825 386.977 L 997.025 386.977 L 997.025 385.477 C 997.025 383.477 997.825 382.375 1000.126 382.375 L 1002.524 382.375 L 1002.523 384.773 Z " fill="rgb(162,162,162)"/><path d=" M 1042.25 379.375 L 1026.25 379.375 C 1025.148 379.375 1024.25 380.273 1024.25 381.375 L 1024.25 397.375 C 1024.25 398.477 1025.148 399.375 1026.25 399.375 L 1042.25 399.375 C 1043.352 399.375 1044.25 398.477 1044.25 397.375 L 1044.25 381.375 C 1044.25 380.273 1043.352 379.375 1042.25 379.375 Z  M 1039.852 386.175 L 1039.852 386.575 C 1039.852 390.375 1036.949 394.773 1031.648 394.773 C 1030.051 394.773 1028.551 394.273 1027.25 393.477 L 1027.95 393.477 C 1029.25 393.477 1030.55 392.977 1031.55 392.273 C 1030.25 392.273 1029.25 391.375 1028.852 390.273 C 1029.051 390.273 1029.25 390.375 1029.352 390.375 C 1029.648 390.375 1029.852 390.375 1030.148 390.273 C 1028.852 389.977 1027.852 388.875 1027.852 387.477 C 1028.25 387.676 1028.648 387.773 1029.148 387.875 C 1028.352 387.175 1027.852 386.375 1027.852 385.375 C 1027.852 384.875 1027.949 384.375 1028.25 383.977 C 1029.648 385.676 1031.75 386.875 1034.148 386.977 C 1034.148 386.773 1034.051 386.574 1034.051 386.273 C 1034.052 384.673 1035.349 383.376 1036.949 383.375 C 1037.75 383.375 1038.551 383.675 1039.051 384.273 C 1039.75 384.176 1040.351 383.875 1040.851 383.574 C 1040.648 384.274 1040.148 384.774 1039.551 385.176 C 1040.148 385.074 1040.648 384.976 1041.25 384.676 C 1040.863 385.244 1040.391 385.75 1039.852 386.176 L 1039.852 386.175 Z " fill="rgb(162,162,162)"/><path d=" M 1064.823 380.25 C 1063.823 380.25 1063 381.073 1063 382.073 L 1063 398.427 C 1063 399.427 1063.823 400.25 1064.823 400.25 L 1081.177 400.25 C 1082.182 400.245 1082.995 399.431 1083 398.427 L 1083 382.073 C 1083 381.073 1082.177 380.25 1081.177 380.25 L 1064.823 380.25 Z  M 1070.657 383.505 L 1074.328 383.505 L 1073.157 384.078 L 1072.167 384.078 C 1072.583 384.495 1073.417 385.165 1073.417 386.5 C 1073.417 387.835 1072.655 388.417 1071.906 389 C 1071.656 389.25 1071.412 389.502 1071.412 389.833 C 1071.412 390.25 1071.656 390.422 1071.907 390.588 L 1072.583 391.083 C 1073.332 391.75 1074.094 392.333 1074.094 393.583 C 1074.094 395.25 1072.407 396.917 1069.406 396.917 C 1066.822 396.917 1065.578 395.667 1065.578 394.417 C 1065.578 393.75 1065.927 392.922 1067.011 392.255 C 1068.094 391.588 1069.588 391.507 1070.422 391.422 C 1070.172 391.09 1069.927 390.752 1069.927 390.25 C 1069.927 389.918 1069.998 389.739 1070.083 389.572 L 1069.51 389.572 C 1067.427 389.658 1066.333 388.254 1066.333 386.84 C 1066.333 386.007 1066.757 385.078 1067.505 384.496 C 1068.505 383.662 1069.738 383.506 1070.657 383.506 L 1070.657 383.505 Z  M 1069.588 384.078 C 1069.087 384.078 1068.589 384.345 1068.338 384.677 C 1068.007 385.093 1067.922 385.588 1067.922 386.005 C 1067.922 387.171 1068.58 389.157 1070.162 389.157 C 1070.578 389.157 1071.079 388.912 1071.412 388.662 C 1071.828 388.245 1071.828 387.662 1071.828 387.412 C 1071.828 386.077 1071.089 384.078 1069.588 384.078 Z  M 1077.167 386.917 L 1078.833 386.917 L 1078.833 389.417 L 1081.333 389.417 L 1081.333 391.083 L 1078.833 391.083 L 1078.833 393.583 L 1077.167 393.583 L 1077.167 391.083 L 1074.667 391.083 L 1074.667 389.417 L 1077.167 389.417 L 1077.167 386.917 Z  M 1070.422 391.995 C 1070.256 391.995 1069.243 392.004 1068.495 392.255 C 1068.078 392.422 1067.01 392.828 1067.01 394.078 C 1067.01 395.328 1068.244 396.239 1070.162 396.239 C 1071.912 396.239 1072.844 395.422 1072.844 394.339 C 1072.844 393.421 1072.252 392.912 1070.917 391.995 L 1070.422 391.995 Z " fill="rgb(162,162,162)"/><path d=" M 1119.5 380.25 L 1103.5 380.25 C 1102.398 380.25 1101.5 381.148 1101.5 382.25 L 1101.5 398.25 C 1101.5 399.352 1102.398 400.25 1103.5 400.25 L 1119.5 400.25 C 1120.602 400.25 1121.5 399.352 1121.5 398.25 L 1121.5 382.25 C 1121.5 381.148 1120.602 380.25 1119.5 380.25 Z  M 1116.5 396.125 C 1116.5 396.172 1116.48 396.223 1116.441 396.25 C 1116.395 396.297 1115.016 397.25 1112.5 397.25 C 1109.48 397.25 1109.5 393.637 1109.5 393.25 L 1109.5 389.25 L 1107.676 389.25 C 1107.629 389.25 1107.584 389.232 1107.551 389.199 C 1107.518 389.166 1107.5 389.121 1107.5 389.074 L 1107.5 387.414 C 1107.5 387.336 1107.54 387.277 1107.605 387.25 C 1107.637 387.238 1110.5 385.98 1110.5 383.426 C 1110.5 383.328 1110.578 383.25 1110.676 383.25 L 1112.328 383.25 C 1112.422 383.25 1112.5 383.328 1112.5 383.426 L 1112.5 387.25 L 1115.324 387.25 C 1115.42 387.252 1115.498 387.33 1115.5 387.426 L 1115.5 389.078 C 1115.496 389.173 1115.419 389.248 1115.324 389.25 L 1112.5 389.25 L 1112.5 393.25 C 1112.5 393.309 1112.406 394.523 1113.7 394.523 C 1114.762 394.523 1116.219 394.176 1116.23 394.176 C 1116.29 394.136 1116.355 394.136 1116.402 394.168 C 1116.461 394.195 1116.5 394.255 1116.5 394.32 L 1116.5 396.125 Z " fill="rgb(162,162,162)"/><path d=" M 1157 381.125 L 1141 381.125 C 1139.898 381.125 1139 382.023 1139 383.125 L 1139 399.125 C 1139 400.227 1139.898 401.125 1141 401.125 L 1157 401.125 C 1158.102 401.125 1159 400.227 1159 399.125 L 1159 383.125 C 1159 382.023 1158.102 381.125 1157 381.125 Z  M 1145.102 397.125 L 1142 397.125 L 1142 388.523 L 1145.102 388.523 L 1145.102 397.125 Z  M 1143.5 387.523 C 1142.602 387.523 1142 386.926 1142 386.125 C 1142 385.325 1142.602 384.727 1143.602 384.727 C 1144.5 384.727 1145.102 385.324 1145.102 386.125 C 1145.102 386.925 1144.5 387.523 1143.5 387.523 Z  M 1156 397.125 L 1152.898 397.125 L 1152.898 392.425 C 1152.898 391.125 1152.102 390.825 1151.801 390.825 C 1151.5 390.825 1150.5 391.023 1150.5 392.425 L 1150.5 397.125 L 1147.398 397.125 L 1147.398 388.523 L 1150.5 388.523 L 1150.5 389.727 C 1150.898 389.023 1151.7 388.523 1153.2 388.523 C 1154.7 388.523 1155.898 389.727 1155.898 392.426 L 1155.898 397.125 L 1156 397.125 Z " fill="rgb(162,162,162)"/><path d=" M 1176.469 379.375 C 1174.243 379.375 1172.438 381.201 1172.438 383.453 L 1172.438 397.047 C 1172.438 399.299 1174.243 401.125 1176.469 401.125 L 1189.906 401.125 C 1192.132 401.125 1193.937 399.299 1193.938 397.047 L 1193.938 383.453 C 1193.937 381.201 1192.132 379.375 1189.906 379.375 L 1176.469 379.375 Z  M 1176.469 381.048 L 1189.906 381.048 C 1191.219 381.049 1192.283 382.125 1192.284 383.453 L 1192.284 386.904 L 1188.898 386.904 C 1187.752 384.907 1185.629 383.558 1183.188 383.558 C 1180.746 383.558 1178.623 384.907 1177.477 386.904 L 1174.091 386.904 L 1174.091 383.453 C 1174.092 382.125 1175.156 381.049 1176.469 381.048 L 1176.469 381.048 Z  M 1188.976 381.885 C 1188.521 381.885 1188.149 382.261 1188.149 382.721 L 1188.149 384.394 C 1188.149 384.854 1188.521 385.231 1188.976 385.231 L 1190.63 385.231 C 1191.085 385.231 1191.457 384.854 1191.457 384.394 L 1191.457 382.721 C 1191.457 382.261 1191.085 381.885 1190.63 381.885 L 1188.976 381.885 Z  M 1183.188 385.231 C 1184.657 385.231 1185.975 385.877 1186.883 386.904 C 1186.892 386.914 1186.902 386.921 1186.909 386.93 C 1186.948 386.972 1186.976 387.018 1187.012 387.06 C 1187.112 387.185 1187.206 387.32 1187.296 387.453 C 1187.332 387.505 1187.368 387.554 1187.4 387.61 C 1187.532 387.826 1187.661 388.054 1187.761 388.289 C 1187.781 388.332 1187.797 388.378 1187.813 388.42 C 1187.855 388.528 1187.881 388.649 1187.917 388.76 C 1187.946 388.855 1187.971 388.953 1187.994 389.048 C 1188.01 389.11 1188.032 389.168 1188.046 389.23 C 1188.052 389.256 1188.065 389.283 1188.071 389.309 C 1188.098 389.446 1188.11 389.587 1188.123 389.727 C 1188.246 390.898 1187.953 392.075 1187.296 393.047 C 1186.492 394.249 1185.206 395.089 1183.704 395.243 C 1182.05 395.418 1180.419 394.74 1179.363 393.44 C 1179.263 393.313 1179.168 393.182 1179.079 393.047 C 1178.523 392.222 1178.226 391.248 1178.226 390.25 C 1178.226 390.093 1178.239 389.933 1178.252 389.779 C 1178.255 389.763 1178.248 389.744 1178.252 389.727 C 1178.255 389.681 1178.271 389.642 1178.278 389.597 C 1178.294 389.475 1178.303 389.352 1178.329 389.23 C 1178.355 389.103 1178.397 388.988 1178.433 388.865 C 1178.443 388.831 1178.449 388.793 1178.458 388.76 C 1178.472 388.717 1178.472 388.671 1178.485 388.63 C 1178.514 388.541 1178.553 388.453 1178.588 388.368 C 1178.597 388.342 1178.604 388.315 1178.613 388.289 C 1178.714 388.054 1178.843 387.826 1178.975 387.61 C 1179.008 387.554 1179.043 387.505 1179.079 387.453 C 1179.198 387.273 1179.324 387.093 1179.466 386.93 L 1179.492 386.904 C 1180.431 385.838 1181.776 385.229 1183.188 385.231 Z  M 1183.188 387.061 C 1182.586 387.061 1182.038 387.237 1181.559 387.531 C 1181.71 387.482 1181.867 387.455 1182.025 387.453 C 1182.909 387.454 1183.626 388.179 1183.627 389.074 C 1183.624 389.968 1182.909 390.692 1182.025 390.694 C 1181.141 390.692 1180.425 389.968 1180.422 389.074 C 1180.422 388.907 1180.455 388.753 1180.5 388.603 C 1180.197 389.098 1180.036 389.668 1180.034 390.25 C 1180.034 391.096 1180.366 391.908 1180.957 392.506 C 1181.549 393.105 1182.351 393.44 1183.187 393.44 C 1184.024 393.44 1184.826 393.105 1185.418 392.506 C 1186.009 391.908 1186.341 391.096 1186.341 390.25 C 1186.341 389.404 1186.009 388.592 1185.418 387.994 C 1184.826 387.395 1184.024 387.06 1183.188 387.06 L 1183.188 387.061 Z " fill="rgb(162,162,162)"/><g transform="matrix(1,0,0,1,475.48,374)"><text transform="matrix(1,0,0,1,0,23.76)" style="font-family:'Oranienbaum';font-weight:400;font-size:18px;font-style:normal;fill:#ffffff;stroke:none;">La créativité est une drogue sans laquelle je ne peux pas vivre </text></g><rect x="373" y="416" width="993.25" height="788" transform="matrix(1,0,0,1,0,0)" fill="rgb(235,235,235)" vector-effect="non-scaling-stroke" stroke-width="3" stroke="rgb(116,116,116)" stroke-linejoin="miter" stroke-linecap="square" stroke-miterlimit="2"/><path d="M 796.89 606.974 L 966.818 559.471 C 984.299 554.584 1002.459 564.809 1007.346 582.29 L 1007.346 582.29 C 1012.232 599.771 1002.008 617.931 984.526 622.818 L 814.598 670.321 C 797.117 675.208 778.958 664.983 774.071 647.502 L 774.071 647.502 C 769.184 630.021 779.409 611.861 796.89 606.974 Z" style="stroke:none;fill:#D1D1D1;stroke-miterlimit:10;"/><path d="M 796.89 606.974 L 966.818 559.471 C 984.299 554.584 1002.459 564.809 1007.346 582.29 L 1007.346 582.29 C 1012.232 599.771 1002.008 617.931 984.526 622.818 L 814.598 670.321 C 797.117 675.208 778.958 664.983 774.071 647.502 L 774.071 647.502 C 769.184 630.021 779.409 611.861 796.89 606.974 Z" style="fill:none;stroke:#D1D1D1;stroke-width:3;stroke-linecap:square;stroke-miterlimit:2;"/><g transform="matrix(0.961,-0.276,0.276,0.961,831.211,602.232)"><text transform="matrix(1,0,0,1,0.44,22.04)" style="font-family:'Merienda One';font-weight:400;font-size:20px;font-style:normal;fill:#ffffff;stroke:none;">I'm Avalaible for   </text><text transform="matrix(1,0,0,1,20.24,50.92)" style="font-family:'Merienda One';font-weight:400;font-size:20px;font-style:normal;fill:#ffffff;stroke:none;">FREELANCE</text></g><path d="M 1147.001 964 L 1247.999 964 C 1260.142 964 1270 973.41 1270 985 L 1270 985 C 1270 996.59 1260.142 1006 1247.999 1006 L 1147.001 1006 C 1134.858 1006 1125 996.59 1125 985 L 1125 985 C 1125 973.41 1134.858 964 1147.001 964 Z" style="stroke:none;fill:#8B8B8B;stroke-linecap:square;stroke-miterlimit:2;"/><path d="M 1147.001 964 L 1247.999 964 C 1260.142 964 1270 973.41 1270 985 L 1270 985 C 1270 996.59 1260.142 1006 1247.999 1006 L 1147.001 1006 C 1134.858 1006 1125 996.59 1125 985 L 1125 985 C 1125 973.41 1134.858 964 1147.001 964 Z" style="fill:none;stroke:#747474;stroke-width:3;stroke-linecap:square;stroke-miterlimit:2;"/><path d="M 966.924 964 L 1061.576 964 C 1073.4 964 1083 973.41 1083 985 L 1083 985 C 1083 996.59 1073.4 1006 1061.576 1006 L 966.924 1006 C 955.1 1006 945.5 996.59 945.5 985 L 945.5 985 C 945.5 973.41 955.1 964 966.924 964 Z" style="stroke:none;fill:#EBEBEB;stroke-linecap:square;stroke-miterlimit:2;"/><path d="M 966.924 964 L 1061.576 964 C 1073.4 964 1083 973.41 1083 985 L 1083 985 C 1083 996.59 1073.4 1006 1061.576 1006 L 966.924 1006 C 955.1 1006 945.5 996.59 945.5 985 L 945.5 985 C 945.5 973.41 955.1 964 966.924 964 Z" style="fill:none;stroke:#747474;stroke-width:3;stroke-linecap:square;stroke-miterlimit:2;"/><path d=" M 948 682.917 C 948 680.891 944.756 679.25 940.75 679.25 C 936.744 679.25 933.5 680.891 933.5 682.917 C 933.5 684.943 940.75 691 940.75 691 C 940.75 691 948 684.939 948 682.917 L 948 682.917 Z  M 936.213 683.048 C 936.213 681.78 938.244 680.753 940.75 680.753 C 943.256 680.753 945.287 681.78 945.287 683.048 C 945.287 684.317 943.253 685.342 940.75 685.342 C 938.247 685.342 936.213 684.317 936.213 683.048 L 936.213 683.048 Z " fill="rgb(23,23,23)"/><path d=" M 946.543 727.168 C 945.7 726.506 944.843 726.103 944.01 726.766 L 943.512 727.164 C 943.148 727.455 942.472 728.811 939.857 726.047 C 937.24 723.289 938.796 722.859 939.163 722.572 L 939.663 722.172 C 940.491 721.51 940.178 720.676 939.579 719.817 L 939.22 719.297 C 938.62 718.442 937.965 717.879 937.134 718.539 L 936.685 718.9 C 936.317 719.144 935.291 719.943 935.042 721.459 C 934.743 723.277 935.69 725.361 937.853 727.646 C 940.016 729.934 942.136 731.082 944.141 731.062 C 945.807 731.045 946.815 730.225 947.13 729.926 L 947.579 729.564 C 948.409 728.904 947.894 728.23 947.049 727.568 L 946.543 727.168 Z " fill="rgb(0,0,0)"/><g><path d=" M 946.721 751.83 L 936.488 751.83 C 935.784 751.83 935.215 752.346 935.215 752.977 L 935.208 759.854 C 935.208 760.484 935.784 761 936.488 761 L 946.721 761 C 947.424 761 948 760.484 948 759.854 L 948 752.977 C 948 752.346 947.424 751.83 946.721 751.83 Z  M 946.721 754.123 L 941.604 756.988 L 936.488 754.123 L 936.488 752.977 L 941.604 755.842 L 946.721 752.977 L 946.721 754.123 Z " fill="rgb(0,0,0)"/><path d=" M 835.5 550 L 856 550 L 856 560.278 L 835.5 560.278 L 835.5 550 Z " fill="none"/></g><path d=" M 942.512 821.625 C 938.933 821.628 936.032 825.182 936.029 829.566 C 936.029 831.151 936.446 832.601 937.096 833.842 L 935.982 837.655 L 939.45 836.458 C 940.369 837.074 941.39 837.507 942.512 837.507 C 946.088 837.507 948.994 833.947 948.994 829.566 C 948.994 825.185 946.088 821.625 942.512 821.625 Z  M 942.512 822.847 C 945.546 822.847 947.997 825.849 947.997 829.566 C 948 831.992 946.934 834.231 945.209 835.422 C 943.483 836.613 941.368 836.571 939.675 835.312 L 939.493 835.174 L 937.572 835.832 L 938.195 833.714 L 938.044 833.456 C 936.851 831.409 936.693 828.716 937.634 826.481 C 938.576 824.245 940.458 822.843 942.512 822.847 Z  M 940.08 825.29 C 939.901 825.299 939.733 825.404 939.622 825.576 C 939.465 825.801 939.021 826.349 939.021 827.466 C 939.021 828.578 939.636 829.657 939.722 829.809 C 939.808 829.962 940.934 832.248 942.656 833.231 C 943.065 833.465 943.384 833.604 943.634 833.708 C 944.047 833.88 944.422 833.857 944.717 833.799 C 945.048 833.732 945.734 833.25 945.878 832.721 C 946.017 832.19 946.022 831.737 945.975 831.642 C 945.935 831.547 945.819 831.489 945.648 831.379 C 945.477 831.266 944.631 830.716 944.475 830.645 C 944.32 830.563 944.202 830.53 944.086 830.755 C 943.918 831.062 943.737 831.358 943.544 831.642 C 943.443 831.795 943.344 831.813 943.175 831.699 C 942.998 831.584 942.446 831.346 941.791 830.573 C 941.411 830.111 941.089 829.582 940.836 829.004 C 940.735 828.776 940.825 828.656 940.911 828.546 C 940.989 828.441 941.082 828.279 941.167 828.145 C 941.253 828.016 941.281 827.916 941.339 827.768 C 941.387 827.641 941.383 827.494 941.328 827.372 C 941.281 827.257 940.938 826.14 940.797 825.687 C 940.658 825.247 940.513 825.306 940.408 825.301 C 940.311 825.29 940.194 825.29 940.08 825.29 Z " fill="rgb(0,0,0)"/><g transform="matrix(1,0,0,1,530.25,930.5)"><text transform="matrix(1,0,0,1,37.5,46.078)" style="font-family:'Nova Round';font-weight:400;font-size:48px;font-style:normal;fill:#000000;stroke:none;">I'm </text><text transform="matrix(1,0,0,1,122.484,46.078)" style="font-family:'Nova Round';font-weight:400;font-size:48px;font-style:normal;fill:#8b8b8b;stroke:none;">Robert </text><text transform="matrix(1,0,0,1,288.609,46.078)" style="font-family:'Nova Round';font-weight:400;font-size:48px;font-style:normal;fill:#a2a2a2;stroke:none;">Doe</text><text transform="matrix(1,0,0,1,106.258,71.377)" style="font-family:'Nova Round';font-weight:400;font-size:14px;font-style:normal;fill:#000000;stroke:none;">GRAPHIC &amp; WEB DESIGNER</text></g><g transform="matrix(1,0,0,1,473,495.859)"><text transform="matrix(1,0,0,1,0,19.199)" style="font-family:'Nova Round';font-weight:400;font-size:20px;font-style:normal;fill:rgba(0, 0, 0, 0);stroke:none;">I'm Robert Doe</text><text transform="matrix(1,0,0,1,0,43.34)" style="font-family:'Nova Round';font-weight:400;font-size:20px;font-style:normal;fill:rgba(0, 0, 0, 0);stroke:none;">GRAPHIC &amp; WEB DESIGNER</text></g><ellipse vector-effect="non-scaling-stroke" cx="639.5000000000001" cy="558.25" rx="47.499999999999886" ry="46" fill="rgb(255,255,255)" stroke-width="3" stroke="rgb(116,116,116)" stroke-linejoin="miter" stroke-linecap="butt" stroke-miterlimit="3"/><ellipse vector-effect="non-scaling-stroke" cx="517.7499999999999" cy="606" rx="47.499999999999915" ry="46" fill="rgb(255,255,255)" stroke-width="3" stroke="rgb(116,116,116)" stroke-linejoin="miter" stroke-linecap="butt" stroke-miterlimit="3"/><ellipse vector-effect="non-scaling-stroke" cx="478.5" cy="753" rx="47.49999999999997" ry="46" fill="rgb(255,255,255)" stroke-width="3" stroke="rgb(116,116,116)" stroke-linejoin="miter" stroke-linecap="butt" stroke-miterlimit="3"/><ellipse vector-effect="non-scaling-stroke" cx="519.5" cy="918" rx="47.49999999999997" ry="46" fill="rgb(255,255,255)" stroke-width="3" stroke="rgb(116,116,116)" stroke-linejoin="miter" stroke-linecap="butt" stroke-miterlimit="3"/><g><rect x="704" y="726.906" width="138.625" height="88.094" transform="matrix(1,0,0,1,0,0)" fill="none" vector-effect="non-scaling-stroke" stroke-width="16.688" stroke="rgb(0,0,0)" stroke-linejoin="miter" stroke-linecap="butt" stroke-miterlimit="2"/><ellipse vector-effect="non-scaling-stroke" cx="810.8567708333336" cy="748.9296875" rx="8.6640625" ry="7.341145833333371" fill="none" stroke-width="16.688" stroke="rgb(0,0,0)" stroke-linejoin="miter" stroke-linecap="butt" stroke-miterlimit="10"/><path d=" M 704 790.53 L 744.432 756.271 L 767.536 775.847" fill="none" vector-effect="non-scaling-stroke" stroke-width="16.688" stroke="rgb(0,0,0)" stroke-linejoin="miter" stroke-linecap="butt" stroke-miterlimit="10"/><path d=" M 727.104 815 L 787.753 763.612 L 839.737 807.659" fill="none" vector-effect="non-scaling-stroke" stroke-width="16.688" stroke="rgb(0,0,0)" stroke-linejoin="miter" stroke-linecap="butt" stroke-miterlimit="10"/></g><ellipse vector-effect="non-scaling-stroke" cx="750.5000000000002" cy="769" rx="168.5000000000001" ry="163" fill="rgb(162,162,162)" stroke-width="5" stroke="rgb(116,116,116)" stroke-linejoin="miter" stroke-linecap="square" stroke-miterlimit="3"/><ellipse vector-effect="non-scaling-stroke" cx="658" cy="710.7500000000001" rx="8" ry="7.5" fill="rgb(255,255,255)" stroke-width="3" stroke="rgb(70,70,70)" stroke-linejoin="miter" stroke-linecap="square" stroke-miterlimit="3"/><ellipse vector-effect="non-scaling-stroke" cx="646.0000000000001" cy="753" rx="8" ry="7.5" fill="rgb(255,255,255)" stroke-width="3" stroke="rgb(70,70,70)" stroke-linejoin="miter" stroke-linecap="square" stroke-miterlimit="3"/><g transform="matrix(1,0,0,1,612,543)"><text transform="matrix(1,0,0,1,0,19.199)" style="font-family:'Nova Round';font-weight:400;font-size:20px;font-style:normal;fill:#000000;stroke:none;">about</text></g><ellipse vector-effect="non-scaling-stroke" cx="662.0000000000001" cy="822.5" rx="8" ry="7.5" fill="rgb(255,255,255)" stroke-width="3" stroke="rgb(70,70,70)" stroke-linejoin="miter" stroke-linecap="square" stroke-miterlimit="3"/><line x1="526" y1="753" x2="638" y2="753" vector-effect="non-scaling-stroke" stroke-width="4" stroke="rgb(116,116,116)" stroke-linejoin="miter" stroke-linecap="square" stroke-miterlimit="3"/><line x1="558" y1="892" x2="654" y2="830" vector-effect="non-scaling-stroke" stroke-width="4" stroke="rgb(116,116,116)" stroke-linejoin="miter" stroke-linecap="square" stroke-miterlimit="3"/><line x1="666" y1="597" x2="704" y2="657.5" vector-effect="non-scaling-stroke" stroke-width="4" stroke="rgb(116,116,116)" stroke-linejoin="miter" stroke-linecap="square" stroke-miterlimit="3"/><line x1="560.5" y1="627.25" x2="651.5" y2="703.25" vector-effect="non-scaling-stroke" stroke-width="4" stroke="rgb(116,116,116)" stroke-linejoin="miter" stroke-linecap="square" stroke-miterlimit="3"/><ellipse vector-effect="non-scaling-stroke" cx="704" cy="657.75" rx="8" ry="7.5" fill="rgb(255,255,255)" stroke-width="3" stroke="rgb(70,70,70)" stroke-linejoin="miter" stroke-linecap="square" stroke-miterlimit="3"/><g transform="matrix(1,0,0,1,475,587.5)"><text transform="matrix(1,0,0,1,0,19.199)" style="font-family:'Nova Round';font-weight:400;font-size:20px;font-style:normal;fill:#000000;stroke:none;">Portfolio </text></g><g transform="matrix(1,0,0,1,451,734)"><text transform="matrix(1,0,0,1,0,19.199)" style="font-family:'Nova Round';font-weight:400;font-size:20px;font-style:normal;fill:#000000;stroke:none;">blog</text></g><g transform="matrix(1,0,0,1,478,904)"><text transform="matrix(1,0,0,1,0,19.199)" style="font-family:'Nova Round';font-weight:400;font-size:20px;font-style:normal;fill:#000000;stroke:none;">contact</text></g><g transform="matrix(1,0,0,1,953,679.25)"><text transform="matrix(1,0,0,1,5.469,13.439)" style="font-family:'Nova Round';font-weight:400;font-size:14px;font-style:normal;fill:#000000;stroke:none;">666 Sk. Izmir, Turkey</text><text transform="matrix(1,0,0,1,0,47.236)" style="font-family:'Nova Round';font-weight:400;font-size:14px;font-style:normal;fill:#000000;stroke:none;"> +90 555 6667788</text><text transform="matrix(1,0,0,1,0,81.033)" style="font-family:'Nova Round';font-weight:400;font-size:14px;font-style:normal;fill:#000000;stroke:none;"> info@example.com</text><text transform="matrix(1,0,0,1,0,114.83)" style="font-family:'Nova Round';font-weight:400;font-size:14px;font-style:normal;fill:#000000;stroke:none;"> rebertdoe</text><text transform="matrix(1,0,0,1,0,154.387)" style="font-family:'Nova Round';font-weight:400;font-size:14px;font-style:normal;fill:#000000;stroke:none;"> +90 555 4445566</text><text transform="matrix(1,0,0,1,0,196.908)" style="font-family:'Nova Round';font-weight:400;font-size:14px;font-style:normal;fill:#000000;stroke:none;">Tacos bitters readymade vice, intelligentsia </text><text transform="matrix(1,0,0,1,0,213.807)" style="font-family:'Nova Round';font-weight:400;font-size:14px;font-style:normal;fill:#000000;stroke:none;">williamsburg drinking vinegar schlitz locavore </text><text transform="matrix(1,0,0,1,0,230.705)" style="font-family:'Nova Round';font-weight:400;font-size:14px;font-style:normal;fill:#000000;stroke:none;">cred thundercats. Kinfolk narwhal tofu </text><text transform="matrix(1,0,0,1,0,253.363)" style="font-family:'Nova Round';font-weight:400;font-size:14px;font-style:normal;fill:#000000;stroke:none;">stumptown. Selfies tattooed four loko banjo. </text><text transform="matrix(1,0,0,1,0,277.504)" style="font-family:'Nova Round';font-weight:400;font-size:20px;font-style:normal;fill:rgba(0, 0, 0, 0);stroke:none;">text herePEKE</text></g><path d=" M 949.168 792.414 C 949.212 792.111 949.236 791.806 949.238 791.5 C 949.238 787.77 946.218 784.75 942.488 784.75 C 942.178 784.75 941.873 784.78 941.574 784.821 C 940.864 784.288 940.001 784 939.113 784 C 936.833 784 934.988 785.845 934.988 788.125 C 934.988 789.048 935.296 789.897 935.809 790.586 C 935.764 790.889 935.741 791.194 935.738 791.5 C 935.738 795.23 938.758 798.25 942.488 798.25 C 942.799 798.25 943.103 798.22 943.402 798.18 C 944.113 798.712 944.976 799 945.863 799 C 948.143 799 949.988 797.155 949.988 794.875 C 949.988 793.953 949.681 793.103 949.168 792.414 Z  M 942.488 796 C 939.983 796 938.545 794.688 938.545 793.398 C 938.545 792.742 939.233 792.531 939.508 792.531 C 940.144 792.531 940.356 793.05 940.473 793.29 C 941.117 794.618 941.738 794.442 942.35 794.5 C 942.89 794.55 944.161 794.313 944.161 793.387 C 944.161 793.296 944.299 792.696 943.203 792.393 C 942.503 792.203 941.269 791.969 940.253 791.579 C 939.298 791.21 938.738 790.454 938.738 789.479 C 938.738 788.989 938.987 787 942.371 787 C 944.629 787 945.834 788.157 945.834 789.174 C 945.834 789.408 945.743 789.613 945.564 789.801 C 945.385 789.985 944.879 790.258 944.325 789.903 C 944.188 789.816 944.07 789.628 943.933 789.388 C 943.768 789.085 943.496 788.5 942.248 788.5 C 941.035 788.5 940.698 789.078 940.698 789.321 C 940.698 790.129 942.245 790.299 942.661 790.407 C 944.176 790.797 946.238 791.157 946.238 793.2 C 946.238 795.546 943.798 796 942.488 796 Z " fill="rgb(23,23,23)"/><g transform="matrix(1,0,0,1,1149,975)"><text transform="matrix(1,0,0,1,0,13.439)" style="font-family:'Nova Round';font-weight:400;font-size:14px;font-style:normal;fill:#000000;stroke:none;">Download cv </text><text transform="matrix(1,0,0,1,0,27.458)" style="font-family:'Nova Round';font-weight:400;font-size:11px;font-style:normal;fill:rgba(0, 0, 0, 0);stroke:none;">here</text></g><g transform="matrix(1,0,0,1,968,975)"><text transform="matrix(1,0,0,1,0,19.199)" style="font-family:'Nova Round';font-weight:400;font-size:14px;font-style:normal;fill:#000000;stroke:none;">Hire me </text><text transform="matrix(1,0,0,1,0,43.34)" style="font-family:'Nova Round';font-weight:400;font-size:20px;font-style:normal;fill:rgba(0, 0, 0, 0);stroke:none;">thire </text></g><path d=" M 1030.929 985 L 1030.929 991.781 L 1029.462 992.937 C 1029.169 993.166 1029.003 993.474 1029 993.797 C 1029.004 994.46 1029.694 994.997 1030.547 995 L 1045.453 995 C 1046.306 994.997 1046.996 994.46 1047 993.797 C 1047 993.477 1046.829 993.164 1046.538 992.937 L 1045.071 991.781 L 1045.071 985 L 1030.929 985 Z  M 1032.214 986 L 1043.786 986 L 1043.786 991.5 L 1032.214 991.5 L 1032.214 986 Z  M 1031.852 992.5 L 1044.147 992.5 L 1045.634 993.64 C 1045.685 993.683 1045.714 993.739 1045.714 993.797 C 1045.718 993.852 1045.692 993.905 1045.642 993.944 C 1045.592 993.983 1045.524 994.003 1045.453 994 L 1030.547 994 C 1030.476 994.003 1030.408 993.983 1030.358 993.944 C 1030.308 993.905 1030.282 993.852 1030.286 993.797 C 1030.286 993.742 1030.316 993.679 1030.366 993.64 L 1031.852 992.5 Z " fill="rgb(0,0,0)"/><g transform="matrix(1,0,0,1,698.27,1114)"><text transform="matrix(1,0,0,1,0,14.964)" style="font-family:'Noto Serif';font-weight:400;font-size:14px;font-style:normal;fill:#464646;stroke:none;">copyright 2016 © Mr.Robert | All rights reserved    </text><text transform="matrix(1,0,0,1,10.91,34.029)" style="font-family:'Noto Serif';font-weight:400;font-size:14px;font-style:normal;fill:#464646;stroke:none;">designer:SnapTheme |  developer: LeAmino</text></g></g></svg>